<svg width="28" height="28" viewBox="0 0 28 28" fill="none" xmlns="http://www.w3.org/2000/svg">
<path d="M27.3333 13.9998C27.3333 20.6535 22.4583 26.1717 16.0833 27.1717V17.854H19.1901L19.7812 13.9998H16.0833V11.4998C16.0833 10.4452 16.5989 9.4165 18.2552 9.4165H19.9375V6.13525C19.9375 6.13525 18.4114 5.87484 16.9531 5.87484C13.9062 5.87484 11.9166 7.72119 11.9166 11.0623V13.9998H8.53121V17.854H11.9166V27.1717C5.54163 26.1717 0.666626 20.6535 0.666626 13.9998C0.666626 6.63525 6.63538 0.666504 14 0.666504C21.3645 0.666504 27.3333 6.63525 27.3333 13.9998Z" fill="url(#paint0_linear_103_463)"/>
<defs>
<linearGradient id="paint0_linear_103_463" x1="14" y1="0.666504" x2="14" y2="27.1717" gradientUnits="userSpaceOnUse">
<stop stop-color="#00B2FF"/>
<stop offset="1" stop-color="#006AFF"/>
</linearGradient>
</defs>
</svg>
