<svg width="24" height="24" viewBox="0 0 24 24" fill="none" xmlns="http://www.w3.org/2000/svg">
<path d="M12.0002 0C5.23954 0 0 4.95221 0 11.6405C0 15.1391 1.43423 18.1621 3.76909 20.2507C3.96467 20.427 4.08298 20.6708 4.09264 20.934L4.15783 23.0685C4.17956 23.7494 4.88219 24.1912 5.50514 23.9184L7.88587 22.8681C8.08869 22.7787 8.31324 22.7618 8.52572 22.8198C9.6195 23.1216 10.7857 23.2809 12.0002 23.2809C18.7609 23.2809 24.0005 18.3287 24.0005 11.6405C24.0005 4.95221 18.7609 0 12.0002 0ZM19.2052 8.95792L15.68 14.55C15.1198 15.4385 13.9174 15.6607 13.0771 15.0305L10.2738 12.9274C10.0155 12.7343 9.66297 12.7367 9.40702 12.9298L5.62104 15.8031C5.1164 16.187 4.45482 15.581 4.79526 15.045L8.32048 9.4529C8.88066 8.56435 10.0831 8.34222 10.9234 8.97241L13.7266 11.0755C13.985 11.2686 14.3375 11.2662 14.5934 11.0731L18.3794 8.19976C18.8841 7.81585 19.5457 8.4219 19.2052 8.95792Z" fill="url(#paint0_linear_103_263)"/>
<defs>
<linearGradient id="paint0_linear_103_263" x1="12.0002" y1="0" x2="12.0002" y2="24.0002" gradientUnits="userSpaceOnUse">
<stop stop-color="#00B2FF"/>
<stop offset="1" stop-color="#006AFF"/>
</linearGradient>
</defs>
</svg>
