<svg width="28" height="22" viewBox="0 0 28 22" fill="none" xmlns="http://www.w3.org/2000/svg">
<path d="M9.05063 21.7828C19.1093 21.7828 24.6133 13.5282 24.6133 6.38194C24.6133 6.14971 24.6133 5.91749 24.6026 5.68526C25.6693 4.92525 26.5973 3.96467 27.3333 2.87743C26.352 3.31022 25.296 3.59522 24.1866 3.73245C25.3173 3.06743 26.1813 2.0013 26.5973 0.734614C25.5413 1.3574 24.368 1.80074 23.12 2.04353C22.128 0.987952 20.6986 0.333496 19.1306 0.333496C16.112 0.333496 13.6586 2.76132 13.6586 5.74859C13.6586 6.17082 13.712 6.5825 13.7973 6.98362C9.25329 6.75139 5.22129 4.59802 2.52263 1.32574C2.05329 2.12797 1.78663 3.05688 1.78663 4.04912C1.78663 5.92804 2.75729 7.58529 4.21863 8.55642C3.32263 8.52475 2.47996 8.28197 1.73329 7.88085C1.73329 7.90197 1.73329 7.92308 1.73329 7.95474C1.73329 10.5726 3.62129 12.7682 6.11729 13.2643C5.65863 13.391 5.17863 13.4543 4.67729 13.4543C4.32529 13.4543 3.98396 13.4226 3.65329 13.3593C4.34663 15.5127 6.37329 17.0749 8.76263 17.1171C6.88529 18.5738 4.52796 19.4394 1.96796 19.4394C1.53063 19.4394 1.09329 19.4183 0.666626 19.3655C3.08796 20.8855 5.96796 21.7828 9.05063 21.7828Z" fill="#1DA1F2"/>
</svg>
