<svg width="22" height="24" viewBox="0 0 22 24" fill="none" xmlns="http://www.w3.org/2000/svg">
<path fill-rule="evenodd" clip-rule="evenodd" d="M5.00382 21.3442L5.40333 21.5877C7.09017 22.6001 9.02433 23.132 10.9965 23.1384H11.0029C17.059 23.1384 21.9927 18.1595 21.9927 12.0336C21.9927 9.06675 20.8512 6.27933 18.7776 4.17755C16.7039 2.07578 13.939 0.922363 11.0029 0.922363C4.9404 0.922363 0.00671387 5.90127 0.00671387 12.0272C0.00671387 14.1225 0.583791 16.1666 1.68721 17.9352L1.94721 18.3581L0.843792 22.4463L5.00382 21.3442ZM7.71166 6.43272C7.46434 5.87524 7.20434 5.86242 6.9697 5.85602C6.77947 5.84961 6.55754 5.84961 6.3356 5.84961H6.33555C6.1136 5.84961 5.75847 5.93291 5.45408 6.26612C5.43596 6.28596 5.41591 6.30747 5.39422 6.33075L5.39415 6.33082C5.05143 6.69854 4.29993 7.50486 4.29993 9.05354C4.29993 10.6724 5.45486 12.2414 5.64365 12.4978L5.65067 12.5074C5.66275 12.5238 5.68536 12.5577 5.7182 12.607C6.13353 13.2301 8.1858 16.3092 11.2946 17.5503C13.818 18.5587 14.5261 18.4717 15.0841 18.4032L15.0841 18.4032C15.1431 18.3959 15.2004 18.3889 15.2581 18.3834C15.8668 18.3257 17.2112 17.576 17.4903 16.7942C17.7629 16.0125 17.7629 15.346 17.6805 15.2051C17.6143 15.0919 17.4582 15.0159 17.2285 14.9041C17.1721 14.8766 17.1113 14.847 17.0464 14.8142C16.7166 14.6476 15.0932 13.8402 14.7888 13.7249C14.4844 13.6159 14.2624 13.5583 14.0468 13.8915C13.8249 14.2247 13.1907 14.9744 13.0005 15.1987C12.8102 15.4229 12.6136 15.4486 12.2839 15.282C12.2303 15.2549 12.1572 15.2229 12.0669 15.1833C11.6024 14.9799 10.6835 14.5774 9.62679 13.6223C8.64386 12.738 7.978 11.6423 7.78776 11.3091C7.59751 10.9759 7.76873 10.7965 7.93361 10.6299C8.02682 10.5357 8.13557 10.4022 8.24496 10.268L8.24496 10.268C8.30675 10.1922 8.36874 10.1161 8.42825 10.0468C8.57365 9.87722 8.63521 9.74756 8.72167 9.56548L8.75801 9.48927C8.86581 9.26499 8.81508 9.07276 8.73264 8.90615C8.689 8.82741 8.51206 8.38792 8.30876 7.88298L8.30875 7.88297L8.30871 7.88286C8.09843 7.36058 7.85997 6.76828 7.71166 6.43272Z" fill="url(#paint0_linear_1807_12)"/>
<defs>
<linearGradient id="paint0_linear_1807_12" x1="10.9594" y1="25.1561" x2="10.9594" y2="-0.872172" gradientUnits="userSpaceOnUse">
<stop stop-color="#20B038"/>
<stop offset="1" stop-color="#60D66A"/>
</linearGradient>
</defs>
</svg>
